inDegrees=no
num_controls=7
num_derivatives=13
num_iterations=124
num_multipliers=7
num_parameters=0
num_slacks=7
num_states=26
objective=5.424575
objective_accelerations=0.394630
objective_balance=0.034144
objective_effort=0.181183
objective_height=4.722852
objective_ligament=0.091766
solver_duration=1387.518727
status=Solve_Succeeded
success=true
DataType=double
version=3
OpenSimVersion=4.4-2022-07-23-0e9fedc
endheader
time	/jointset/ground_pelvis/pelvis_tilt/value	/jointset/ground_pelvis/pelvis_tx/value	/jointset/ground_pelvis/pelvis_ty/value	/jointset/hip_l/hip_flexion_l/value	/jointset/hip_l/hip_adduction_l/value	/jointset/hip_l/hip_rotation_l/value	/jointset/back/lumbar_extension/value	/jointset/patellofemoral_l/patellar_flexion_l/value	/jointset/knee_l/knee_flexion_l/value	/jointset/knee_l/knee_adduction_l/value	/jointset/knee_l/knee_rotation_l/value	/jointset/ankle_l/ankle_angle_l/value	/jointset/subtalar_l/subtalar_angle_l/value	/jointset/ground_pelvis/pelvis_tilt/speed	/jointset/ground_pelvis/pelvis_tx/speed	/jointset/ground_pelvis/pelvis_ty/speed	/jointset/hip_l/hip_flexion_l/speed	/jointset/hip_l/hip_adduction_l/speed	/jointset/hip_l/hip_rotation_l/speed	/jointset/back/lumbar_extension/speed	/jointset/patellofemoral_l/patellar_flexion_l/speed	/jointset/knee_l/knee_flexion_l/speed	/jointset/knee_l/knee_adduction_l/speed	/jointset/knee_l/knee_rotation_l/speed	/jointset/ankle_l/ankle_angle_l/speed	/jointset/subtalar_l/subtalar_angle_l/speed	/forceset/tau_hip_flexion_l	/forceset/tau_hip_adduction_l	/forceset/tau_hip_rotation_l	/forceset/tau_knee_flexion_l	/forceset/tau_ankle_angle_l	/forceset/tau_subtalar_angle_l	/forceset/tau_lumbar_extension	lambda_cid13_p0	lambda_cid13_p1	lambda_cid13_p2	lambda_cid13_p3	lambda_cid13_p4	lambda_cid13_p5	lambda_cid14_p0	/jointset/ground_pelvis/pelvis_tilt/accel	/jointset/ground_pelvis/pelvis_tx/accel	/jointset/ground_pelvis/pelvis_ty/accel	/jointset/hip_l/hip_flexion_l/accel	/jointset/hip_l/hip_adduction_l/accel	/jointset/hip_l/hip_rotation_l/accel	/jointset/back/lumbar_extension/accel	/jointset/patellofemoral_l/patellar_flexion_l/accel	/jointset/knee_l/knee_flexion_l/accel	/jointset/knee_l/knee_adduction_l/accel	/jointset/knee_l/knee_rotation_l/accel	/jointset/ankle_l/ankle_angle_l/accel	/jointset/subtalar_l/subtalar_angle_l/accel	gamma_cid13_p0	gamma_cid13_p1	gamma_cid13_p2	gamma_cid13_p3	gamma_cid13_p4	gamma_cid13_p5	gamma_cid14_p0
1	-0.2262001578472366	0.06946788876248476	0.7049791642818678	1.054029815441374	-0.5031497961886199	-0.06720022684604972	-0.2617763484219593	1.178760595669447	1.17876059566918	-0.162661702561248	-0.1745178555741955	0.4362902409962741	0.08654701019246366	-0.01583204004863019	0.009308591849890992	-0.0002699828198742458	0.001137994309282868	-0.002413828466903026	-0.0008665867002034376	-0.0001758798146858431	-0.0002634998105326703	-0.0002634998105319244	-0.002486693944425951	-1.156306924288599e-05	0.01350090502180828	0.006906102121472633	-0.1446708470421189	0.07495092882892734	-0.00917315624690036	-0.3076980064939632	-0.1041965864703489	0.02459880186747013	0.1591623627322591	-70.0328510036906	-0.6124390162383284	2.264855686409944	14.35201647091309	-601.8197371707566	-64.07987307537347	-8.989711544196185	0.6928339381870015	-0.05184860889705318	1.162936256981321	-3.612879405897503	0.38189521185623	-2.116328557174253	-0.01734100121533506	-4.292500943895196	-4.292500943895227	0.03450754879759429	-0.007523409997036226	-1.870779930499118	-0.8308863527702079	1.66129803436582e-09	1.070175268989769e-08	-7.508739881115086e-09	2.598226430885612e-09	-4.583216879717945e-10	1.816479290669135e-08	7.549192544186515e-10
1.01	-0.2263245034319341	0.06955836307571847	0.7050344773042788	1.053861653664441	-0.5031544360036621	-0.06731557430368777	-0.2617782591616188	1.178543756442533	1.178543756442497	-0.1626830723083605	-0.1745179797832256	0.4363319299088648	0.08657539199617804	-0.009040390458050605	0.008786711993670234	0.01133010229780524	-0.03476267303058038	0.001487384064985017	-0.02220008790379297	-0.0002058717229097019	-0.04310158463783723	-0.04310158463783954	-0.001787009744084144	-1.333798605763529e-05	-0.005163783977679213	-0.001227506337810449	-0.1446434157266978	0.07497838562209273	-0.009175067482033006	-0.3075215913552805	-0.1042653570674698	0.02460638744596859	0.1591312930550845	-70.04410067961746	-0.6187040402434872	2.271497939182582	14.30476387222445	-601.6899503057502	-64.07337404073674	-8.999174711671168	0.6718331493629768	-0.05229086565509575	1.158170490960232	-3.5775093276585	0.3944597694197511	-2.141441172298777	0.004231174975953383	-4.279047292816854	-4.279047292817141	0.08773498658866902	0.003491057289186203	-1.864412634029617	-0.804265641996304	-3.085888178659915e-09	2.472007593083734e-09	2.042956788323558e-08	3.140357684056723e-09	-6.922481617234156e-09	9.741341846875241e-09	-4.045013870683783e-09
1.02	-0.2263810319847578	0.06964363195205632	0.7052057163482233	1.053334715428131	-0.5031200185942754	-0.06764417282738569	-0.2617804579282973	1.177898619359188	1.177898619359486	-0.1626974379873732	-0.1745181226233963	0.4361869520824523	0.08652250420540375	-0.002268633672725221	0.008267504470721356	0.02291522148708861	-0.07061729755561059	0.005397616419414096	-0.04351679992126453	-0.0002334852070866397	-0.08592307109189286	-0.08592307109189776	-0.001085880306271216	-1.528931035796433e-05	-0.02383244295140256	-0.009347816776643531	-0.1446159844116899	0.07500584241543269	-0.009176978718307829	-0.3073451762165654	-0.1043341276644854	0.0246139730248708	0.1591002233774637	-70.06424713831885	-0.625056323364147	2.280032362178459	14.28685402774964	-601.6891517837435	-64.06609896277141	-9.026761577633224	0.6888553771362987	-0.05131414224280435	1.159943071302084	-3.603670842930792	0.38369917636448	-2.112970719950601	-0.01686531640573627	-4.289181269245374	-4.289181269245311	0.03479659629185042	-0.007558691494115603	-1.87157392534646	-0.8282267486802782	-7.941283553790994e-09	-6.087894186922676e-09	4.756406278121658e-08	3.787660565472618e-09	-1.348857651028958e-08	1.131645767479188e-09	-8.79665882319062e-09
1.03	-0.2263699464295517	0.06972372680743272	0.7054926946037243	1.052449510181977	-0.503046438634331	-0.06818580133122523	-0.2617829274126067	1.176825380846336	1.176825380846339	-0.1627047991795554	-0.1745182897144869	0.4358552665772485	0.08638853375512581	0.004481740306578197	0.007752355289441311	0.03447422848443187	-0.1064108306131489	0.009321634158831995	-0.06480203786616004	-0.0002603685384734599	-0.1287188205556698	-0.1287188205556657	-0.0003860113071633079	-1.875358680072778e-05	-0.04250542776914991	-0.01743828886822589	-0.1444638388123591	0.07498876308389854	-0.009195104015007215	-0.3070053091608648	-0.1042610951337732	0.02462985431882157	0.1589735475213286	-70.02324360814717	-0.6530297398082988	2.300365896248135	14.22288906624801	-601.448304090826	-64.06375927548864	-9.072467743729323	0.6675269736056401	-0.05148111186451747	1.152945293636979	-3.565257521441541	0.3972323445398716	-2.135280873262905	0.004406626242814651	-4.273897408112489	-4.27389740811106	0.08763053405216309	0.003180299122472078	-1.86527728500888	-0.7982662500635425	-1.27977831040456e-08	-1.465116491267596e-08	7.469035550709177e-08	4.436036626768562e-09	-2.005571155603677e-08	-7.479950771300336e-09	-1.35478110392424e-08
1.04	-0.2262914774214951	0.06979869700983819	0.7058950760851331	1.051206757008343	-0.5029335226426314	-0.06894007832281464	-0.2617856644366526	1.175324359714241	1.175324359713917	-0.1627051519853047	-0.1745185073294082	0.435336827918831	0.08617389682180021	0.01120805689699883	0.007242573876543137	0.04599586666890605	-0.1421268830417692	0.01326482277062896	-0.0860464974712141	-0.0002869931599710838	-0.1714795949461912	-0.1714795949461785	0.0003157969852218617	-2.539406957186777e-05	-0.06118307358768749	-0.02548111338645815	-0.1443116932134904	0.07497168375234069	-0.00921322931185773	-0.3066654421052086	-0.1041880626030427	0.0246457356127504	0.1588468716647713	-69.99115803870231	-0.6810415465814799	2.322532224517041	14.18830401583443	-601.3364631993053	-64.0607756020092	-9.1362653172765	0.6840438993597115	-0.05024058856630883	1.152469308728234	-3.588174717147245	0.3875333508402361	-2.104815051982272	-0.016813574427643	-4.282186254594101	-4.282186254594136	0.03518445494728412	-0.008193932759820709	-1.872506125504242	-0.8186972340101393	-1.755834171556912e-08	-2.321198667026633e-08	1.013427040156789e-07	4.838574037602525e-09	-2.603309212294775e-08	-1.622623790112076e-08	-1.824289926480132e-08
